<svg xmlns="http://www.w3.org/2000/svg" viewBox="0 0 219.25 355.85"><defs><style>.cls-1{isolation:isolate;}.cls-2{fill:#231f20;}.cls-2,.cls-3,.cls-4,.cls-5{mix-blend-mode:multiply;}.cls-3{fill:#ffca0b;}.cls-4{fill:#2fb4b9;}.cls-5{fill:#cc3467;}</style></defs><g class="cls-1"><g id="Layer_2" data-name="Layer 2"><g id="Layer_3" data-name="Layer 3"><path class="cls-2" d="M193.35,232.45c-11.3-75.34-55.06-143.3-118.06-185.91a272.21,272.21,0,0,0-26.74-16c-4.45-2.32-6-4.55-9.43-.47C36.2,33.63,35.62,42,34.71,46.33a165.25,165.25,0,0,0-3.36,40.36A160.16,160.16,0,0,0,54.13,163.6c23.6,38.68,65.2,66.16,110.21,71.4A156.38,156.38,0,0,1,60.77,163.27a156.42,156.42,0,0,1-15.58-125c67.05,33.13,117,95.21,140,165.9.9,2.77,1.76,5.56,2.58,8.35,2.48,8.46,4.47,18,6.51,26.8C194,237,193.69,234.73,193.35,232.45Z"/><path class="cls-2" d="M182,267.88c-15.94,35.21-55.19,62.51-90.67,73.1a147,147,0,0,1-29.71,5.65c-7.52.64-22.64,2.91-29-1.12,2.49-4.38,5.92-8.41,8.91-12.51l6.79-9.35c15.44-21.26,29-44.66,50.27-60.81,17.29-13.14,40.29-20.6,61.11-14.41-15.67-7.07-34.32-5.36-50,1.63s-28.81,18.79-40.24,31.63C57.6,295,47.27,309.61,37,324.17Q30.65,333.08,24.35,342c-4.16,5.88-5.15,11.52,3.48,12.62,30.67,3.91,62.56-1.59,89.8-16.32,30.06-16.26,54.3-43.47,66.48-75.45C183.47,264.55,182.77,266.23,182,267.88Z"/><path class="cls-2" d="M112.34,352.59S215.9,322,217.57,184.36C217.57,184.36,241.07,330.87,112.34,352.59Z"/><path class="cls-3" d="M184.11,228.92S160.75,111.38,48.22,48.43C48.22,48.43,29.77,207.2,184.11,228.92Z"/><path class="cls-4" d="M178,260.68s-50.14-23.4-92.47,26.18-44,55.15-44,55.15S136.8,344.79,178,260.68Z"/><path class="cls-2" d="M193.52,232.53c5.34-76-22.61-151.84-74.84-207.12A273.94,273.94,0,0,0,96,4C92.2.79,91.12-1.74,86.93,1.51c-3.6,2.8-6,10.85-7.82,14.88a165.21,165.21,0,0,0-12,38.66,160.12,160.12,0,0,0,5.53,80c14.63,42.88,49.27,78.74,92.06,93.64A156.44,156.44,0,0,1,79.14,136.2a156.39,156.39,0,0,1,12-125.42c58.26,46.91,93.49,118.35,100.61,192.35q.42,4.35.7,8.71c.58,8.8.46,18.5.54,27.57C193.18,237.12,193.36,234.83,193.52,232.53Z"/><path class="cls-2" d="M174.77,264.65c-23.21,30.91-67.46,49-104.38,51.65a147.6,147.6,0,0,1-30.23-.93c-7.48-1-22.73-2.08-28.06-7.4,3.38-3.73,7.6-6.93,11.4-10.27l8.66-7.65c19.7-17.41,38-37.29,62.28-48.44,19.74-9.07,43.81-11.36,62.79-.79-13.76-10.31-32.34-12.69-49.19-9.27s-32.2,12.07-46.14,22.12C47.43,264.1,34.17,276.1,21,288.08L4.76,302.76c-5.34,4.83-7.53,10.12.66,13.07,29.08,10.48,61.41,12,91.19,3.58,32.88-9.34,62.45-30.63,81.29-59.2C176.91,261.72,175.86,263.2,174.77,264.65Z"/><path class="cls-5" d="M185.28,227.08S188,107.27,91.84,21.37C91.84,21.37,39.34,172.34,185.28,227.08Z"/><path class="cls-4" d="M172.43,256.75S128.57,223,76.48,262.22s-54.94,44.27-54.94,44.27S113.92,329.9,172.43,256.75Z"/></g></g></g></svg>